<svg width="52" height="52" viewBox="0 0 52 52" fill="none" xmlns="http://www.w3.org/2000/svg">
<path d="M0 26C0 11.6406 11.6406 0 26 0V0C40.3594 0 52 11.6406 52 26V26C52 40.3594 40.3594 52 26 52V52C11.6406 52 0 40.3594 0 26V26Z" fill="#45496A"/>
<circle cx="26" cy="23" r="4" fill="white"/>
<circle cx="31" cy="23" r="3" fill="white"/>
<circle cx="21" cy="23" r="3" fill="white"/>
<path fill-rule="evenodd" clip-rule="evenodd" d="M31.5693 32H33.8959C34.4875 32 34.9412 31.4901 34.7974 30.9162C34.4292 29.4458 33.4488 27 31.0009 27C30.1148 27 29.421 27.3205 28.8789 27.7991C30.3866 28.7773 31.1662 30.4902 31.5693 32Z" fill="white"/>
<path fill-rule="evenodd" clip-rule="evenodd" d="M23.1211 27.7991C22.579 27.3205 21.8852 27 20.9991 27C18.5512 27 17.5708 29.4458 17.2026 30.9162C17.0589 31.4901 17.5125 32 18.1041 32H20.4307C20.8338 30.4902 21.6134 28.7773 23.1211 27.7991Z" fill="white"/>
<path d="M26 28C29.7087 28 30.6665 31.301 30.9139 33.0061C30.9932 33.5526 30.5523 34 30 34H22C21.4477 34 21.0068 33.5526 21.0861 33.0061C21.3335 31.301 22.2913 28 26 28Z" fill="white"/>
</svg>
