<svg width="36" height="36" viewBox="0 0 36 36" fill="none" xmlns="http://www.w3.org/2000/svg">
<path d="M0 18C0 8.05887 8.05887 0 18 0V0C27.9411 0 36 8.05887 36 18V18C36 27.9411 27.9411 36 18 36V36C8.05887 36 0 27.9411 0 18V18Z" fill="white"/>
<path d="M20.9091 15.1562C20.8097 14.8106 20.67 14.5052 20.4901 14.2401C20.3101 13.9702 20.09 13.7429 19.8295 13.5582C19.5739 13.3688 19.2803 13.2244 18.9489 13.125C18.6222 13.0256 18.2599 12.9759 17.8622 12.9759C17.1188 12.9759 16.4654 13.1605 15.902 13.5298C15.3433 13.8991 14.9077 14.4366 14.5952 15.142C14.2827 15.8428 14.1264 16.6998 14.1264 17.7131C14.1264 18.7263 14.2803 19.5881 14.5881 20.2983C14.8958 21.0085 15.3314 21.5507 15.8949 21.9247C16.4583 22.294 17.1236 22.4787 17.8906 22.4787C18.5866 22.4787 19.1809 22.3556 19.6733 22.1094C20.1705 21.8584 20.5492 21.5057 20.8097 21.0511C21.0748 20.5966 21.2074 20.0592 21.2074 19.4389L21.8324 19.5312H18.0824V17.2159H24.169V19.0483C24.169 20.3267 23.8991 21.4252 23.3594 22.3438C22.8196 23.2576 22.0762 23.9631 21.1293 24.4602C20.1823 24.9527 19.098 25.1989 17.8764 25.1989C16.5128 25.1989 15.3149 24.8982 14.2827 24.2969C13.2505 23.6908 12.4455 22.8314 11.8679 21.7188C11.295 20.6013 11.0085 19.2756 11.0085 17.7415C11.0085 16.5625 11.179 15.5114 11.5199 14.5881C11.8655 13.66 12.3485 12.8741 12.9688 12.2301C13.589 11.5862 14.3111 11.0961 15.1349 10.7599C15.9588 10.4238 16.8513 10.2557 17.8125 10.2557C18.6364 10.2557 19.4034 10.3764 20.1136 10.6179C20.8239 10.8546 21.4536 11.1908 22.0028 11.6264C22.5568 12.062 23.009 12.5805 23.3594 13.1818C23.7098 13.7784 23.9347 14.4366 24.0341 15.1562H20.9091Z" fill="black"/>
</svg>
