<svg width="32" height="32" viewBox="0 0 32 32" fill="none" xmlns="http://www.w3.org/2000/svg">
<path d="M0 16C0 7.16344 7.16344 0 16 0V0C24.8366 0 32 7.16344 32 16V16C32 24.8366 24.8366 32 16 32V32C7.16344 32 0 24.8366 0 16V16Z" fill="white"/>
<path d="M19.3452 14.2301C19.2898 14.0043 19.2024 13.8061 19.0831 13.6357C18.9638 13.4609 18.8146 13.3139 18.6357 13.1946C18.4609 13.071 18.2564 12.9794 18.022 12.9197C17.7919 12.8558 17.5384 12.8239 17.2614 12.8239C16.6648 12.8239 16.1555 12.9666 15.7337 13.2521C15.3161 13.5376 14.9964 13.9489 14.7749 14.4858C14.5575 15.0227 14.4489 15.6705 14.4489 16.429C14.4489 17.196 14.5533 17.8523 14.7621 18.3977C14.9709 18.9432 15.282 19.3608 15.6953 19.6506C16.1087 19.9403 16.6222 20.0852 17.2358 20.0852C17.777 20.0852 18.2266 20.0064 18.5845 19.8487C18.9467 19.6911 19.2173 19.4673 19.3963 19.1776C19.5753 18.8878 19.6648 18.5469 19.6648 18.1548L20.2784 18.2188H17.2869V15.6875H23.0909V17.5028C23.0909 18.696 22.8374 19.7166 22.3303 20.5646C21.8274 21.4084 21.1328 22.0561 20.2464 22.5078C19.3643 22.9553 18.3523 23.179 17.2102 23.179C15.9361 23.179 14.8175 22.9084 13.8544 22.3672C12.8913 21.826 12.1392 21.0547 11.598 20.0533C11.0611 19.0518 10.7926 17.8608 10.7926 16.4801C10.7926 15.3977 10.9567 14.4389 11.2848 13.6037C11.6172 12.7685 12.0774 12.0632 12.6655 11.4879C13.2536 10.9084 13.9332 10.4716 14.7045 10.1776C15.4759 9.87926 16.3026 9.73011 17.1847 9.73011C17.9602 9.73011 18.6804 9.84091 19.3452 10.0625C20.0142 10.2798 20.6044 10.5909 21.1158 10.9957C21.6314 11.3963 22.0469 11.8714 22.3622 12.4212C22.6776 12.9709 22.8693 13.5739 22.9375 14.2301H19.3452Z" fill="black"/>
</svg>
