<svg width="15" height="16" viewBox="0 0 15 16" fill="none" xmlns="http://www.w3.org/2000/svg">
<path d="M14.5727 12.2832L11.1852 9.20321C11.0251 9.05767 10.8147 8.98005 10.5984 8.98673C10.3821 8.99342 10.1769 9.08389 10.0261 9.23904L8.0319 11.2899C7.5519 11.1982 6.5869 10.8974 5.59357 9.90654C4.60023 8.91237 4.2994 7.94487 4.21023 7.46821L6.2594 5.47321C6.41474 5.32248 6.50535 5.11722 6.51204 4.90088C6.51872 4.68453 6.44097 4.47407 6.29523 4.31404L3.21607 0.927374C3.07027 0.766838 2.86763 0.66946 2.6512 0.655923C2.43476 0.642386 2.22157 0.713756 2.0569 0.854874L0.248568 2.40571C0.104494 2.5503 0.0185013 2.74275 0.00690163 2.94654C-0.00559837 3.15487 -0.243932 8.08987 3.58273 11.9182C6.92107 15.2557 11.1027 15.4999 12.2544 15.4999C12.4227 15.4999 12.5261 15.4949 12.5536 15.4932C12.7573 15.4818 12.9497 15.3954 13.0936 15.2507L14.6436 13.4415C14.7852 13.2774 14.8571 13.0644 14.8439 12.848C14.8307 12.6315 14.7334 12.4289 14.5727 12.2832Z" fill="white"/>
</svg>
